<svg width="923" height="1322" viewBox="0 0 923 1322" fill="none" xmlns="http://www.w3.org/2000/svg">
<path d="M0.615331 1292.76C0.799969 1294.63 1.64608 1296.37 3.00057 1297.66C4.35506 1298.96 6.12841 1299.72 7.99946 1299.82C9.87051 1299.92 11.7157 1299.35 13.201 1298.21C14.6863 1297.07 15.7135 1295.43 16.0968 1293.59L194.187 1313.87C194.156 1315.3 194.519 1316.71 195.235 1317.95C195.951 1319.2 196.994 1320.22 198.25 1320.91C199.506 1321.6 200.927 1321.93 202.358 1321.87C203.79 1321.81 205.178 1321.36 206.37 1320.56C207.563 1319.77 208.515 1318.66 209.123 1317.36C209.732 1316.07 209.973 1314.63 209.82 1313.2C209.668 1311.78 209.128 1310.42 208.259 1309.28C207.39 1308.14 206.225 1307.26 204.891 1306.74L238.755 1190.01C240.525 1190.35 242.359 1190.07 243.947 1189.22C245.535 1188.36 246.781 1186.99 247.473 1185.32L323.784 1209.14C323.58 1210.24 323.614 1211.37 323.884 1212.45C324.153 1213.54 324.652 1214.55 325.346 1215.43C326.041 1216.31 326.915 1217.03 327.91 1217.54C328.905 1218.05 329.997 1218.34 331.115 1218.39C332.232 1218.45 333.348 1218.26 334.387 1217.85C335.426 1217.44 336.365 1216.8 337.14 1216C337.916 1215.19 338.51 1214.23 338.882 1213.17C339.254 1212.12 339.397 1211 339.3 1209.88L443.451 1187.01C443.765 1188.18 444.344 1189.26 445.144 1190.16C445.944 1191.07 446.943 1191.77 448.061 1192.23C449.18 1192.68 450.389 1192.87 451.593 1192.78C452.797 1192.69 453.963 1192.32 455 1191.7L516.14 1276.06C515.033 1277.03 514.22 1278.29 513.793 1279.69C513.367 1281.1 513.343 1282.6 513.726 1284.02C514.11 1285.44 514.883 1286.72 515.96 1287.72C517.036 1288.72 518.372 1289.4 519.815 1289.68C521.258 1289.95 522.75 1289.82 524.122 1289.29C525.493 1288.76 526.689 1287.86 527.572 1286.69C528.456 1285.51 528.992 1284.11 529.119 1282.65C529.246 1281.18 528.96 1279.71 528.292 1278.4L607.799 1228.3C608.506 1229.23 609.411 1229.99 610.448 1230.52C611.485 1231.05 612.627 1231.34 613.791 1231.37C614.955 1231.41 616.112 1231.18 617.177 1230.71C618.242 1230.24 619.189 1229.53 619.947 1228.65L727.412 1305.21C726.626 1306.56 726.263 1308.12 726.369 1309.68C726.475 1311.24 727.046 1312.74 728.008 1313.97C728.97 1315.2 730.278 1316.12 731.766 1316.6C733.253 1317.09 734.852 1317.12 736.355 1316.68C737.858 1316.25 739.198 1315.38 740.201 1314.18C741.205 1312.98 741.827 1311.51 741.986 1309.95C742.146 1308.39 741.837 1306.82 741.098 1305.45C740.359 1304.07 739.224 1302.94 737.84 1302.21L810.637 1126.38C811.636 1126.69 812.688 1126.8 813.729 1126.69C813.943 1126.67 814.153 1126.64 814.362 1126.6L907.982 1188.31C907.159 1189.85 906.875 1191.63 907.175 1193.35C907.475 1195.07 908.341 1196.64 909.637 1197.82C910.933 1198.99 912.584 1199.7 914.328 1199.82C916.071 1199.95 917.807 1199.49 919.26 1198.52C920.713 1197.55 921.799 1196.12 922.346 1194.46C922.894 1192.8 922.871 1191 922.281 1189.36C921.691 1187.71 920.568 1186.31 919.091 1185.37C917.614 1184.44 915.866 1184.03 914.127 1184.2C913.865 1184.22 913.609 1184.26 913.356 1184.31L841.914 945.267L842.397 944.994L841.678 944.477L840.845 941.687L840.528 943.65L721.016 857.752C721.639 856.697 722.004 855.51 722.084 854.288C722.164 853.065 721.956 851.841 721.476 850.714C720.996 849.587 720.259 848.588 719.322 847.798C718.386 847.008 717.277 846.449 716.085 846.166L732.63 730.973C733.673 731.026 734.715 730.871 735.697 730.515C736.678 730.159 737.579 729.611 738.346 728.903C739.113 728.194 739.73 727.34 740.162 726.389C740.595 725.439 740.832 724.412 740.862 723.368C740.892 722.324 740.713 721.285 740.336 720.312C739.958 719.338 739.39 718.45 738.665 717.699C737.94 716.948 737.072 716.35 736.112 715.939C735.152 715.528 734.12 715.313 733.076 715.307L872.819 431.321C874.122 431.821 875.536 431.964 876.914 431.735C878.291 431.506 879.583 430.914 880.654 430.018C881.726 429.123 882.54 427.958 883.011 426.643C883.482 425.328 883.593 423.912 883.333 422.54C883.074 421.167 882.452 419.889 881.533 418.838C880.615 417.786 879.432 416.999 878.107 416.558C876.782 416.116 875.363 416.037 873.997 416.328C872.632 416.618 871.368 417.268 870.337 418.21L676.886 241.842C678.031 240.331 678.589 238.457 678.456 236.567C678.324 234.676 677.51 232.898 676.166 231.562L746.726 146.162C747.645 146.789 748.688 147.214 749.784 147.407C750.881 147.6 752.006 147.557 753.085 147.281C754.163 147.005 755.171 146.503 756.04 145.807C756.909 145.111 757.621 144.238 758.126 143.246C758.632 142.254 758.921 141.166 758.973 140.054C759.025 138.942 758.84 137.831 758.43 136.796C758.019 135.761 757.393 134.825 756.593 134.051C755.792 133.277 754.836 132.683 753.788 132.307L778.958 34.6381C780.115 34.8323 781.301 34.7646 782.428 34.4398C783.555 34.1151 784.596 33.5415 785.472 32.7615C786.349 31.9815 787.039 31.0148 787.492 29.9327C787.946 28.8505 788.151 27.6803 788.092 26.5085C788.034 25.3367 787.713 24.1929 787.154 23.1613C786.595 22.1298 785.812 21.2368 784.862 20.5482C783.912 19.8594 782.82 19.3925 781.666 19.1818C780.512 18.9712 779.325 19.0221 778.193 19.3308L715.587 -151.082C716.728 -151.625 717.721 -152.437 718.481 -153.447C719.241 -154.457 719.746 -155.636 719.952 -156.883C720.158 -158.13 720.059 -159.409 719.665 -160.609C719.27 -161.81 718.59 -162.898 717.684 -163.779C716.778 -164.661 715.673 -165.31 714.461 -165.671C713.25 -166.033 711.97 -166.096 710.729 -165.856C709.488 -165.615 708.323 -165.078 707.335 -164.29C706.346 -163.503 705.563 -162.487 705.051 -161.331L606.411 -194.541C606.732 -195.651 606.804 -196.818 606.621 -197.959C606.438 -199.1 606.005 -200.186 605.354 -201.14C604.702 -202.094 603.848 -202.892 602.852 -203.478C601.856 -204.063 600.743 -204.421 599.592 -204.526C598.442 -204.631 597.282 -204.481 596.197 -204.085C595.111 -203.69 594.126 -203.06 593.313 -202.239C592.499 -201.419 591.877 -200.429 591.49 -199.34C591.104 -198.251 590.963 -197.091 591.077 -195.941C591.088 -195.829 591.111 -195.722 591.126 -195.613L482.839 -167.765C482.264 -168.936 481.407 -169.945 480.345 -170.701C479.282 -171.457 478.048 -171.936 476.753 -172.094C475.459 -172.252 474.146 -172.085 472.932 -171.608C471.719 -171.131 470.643 -170.358 469.804 -169.36C468.964 -168.362 468.387 -167.17 468.124 -165.893C467.861 -164.616 467.921 -163.293 468.298 -162.045C468.675 -160.796 469.358 -159.662 470.285 -158.744C471.211 -157.826 472.352 -157.154 473.603 -156.788L458.707 -10.7429C458.676 -10.7402 458.645 -10.7416 458.614 -10.7384C457.425 -10.6206 456.278 -10.2324 455.262 -9.60391C454.246 -8.97535 453.387 -8.12301 452.75 -7.11181C452.114 -6.1005 451.717 -4.95725 451.589 -3.76916C451.462 -2.58107 451.608 -1.37967 452.016 -0.25654C452.423 0.866587 453.082 1.88162 453.942 2.71115C454.802 3.54069 455.84 4.16277 456.977 4.52988C458.114 4.89688 459.32 4.9994 460.502 4.82944C461.685 4.65935 462.813 4.22116 463.801 3.5486L541.478 101.301C540.516 102.256 539.818 103.443 539.451 104.748C539.085 106.053 539.063 107.43 539.388 108.746C539.712 110.062 540.372 111.271 541.303 112.256C542.234 113.24 543.404 113.967 544.7 114.364L511.281 293.203C509.658 293.082 508.037 293.469 506.644 294.312C505.251 295.155 504.155 296.411 503.509 297.905C502.863 299.4 502.699 301.059 503.04 302.651C503.381 304.243 504.209 305.689 505.41 306.788L445.332 385.766C443.652 384.715 441.636 384.34 439.691 384.716C437.745 385.091 436.014 386.191 434.846 387.792C433.678 389.393 433.16 391.377 433.397 393.345C433.633 395.313 434.607 397.118 436.121 398.397L343.282 531.236C342.02 530.515 340.583 530.159 339.131 530.207C337.679 530.256 336.269 530.707 335.058 531.51C333.847 532.313 332.883 533.436 332.273 534.755C331.663 536.074 331.432 537.537 331.605 538.98C331.777 540.422 332.347 541.789 333.251 542.927C334.155 544.064 335.357 544.928 336.723 545.423C338.09 545.917 339.566 546.022 340.989 545.726C342.411 545.43 343.724 544.745 344.779 543.746L425.29 614.673C424.462 615.805 423.953 617.139 423.817 618.535C423.681 619.931 423.923 621.338 424.517 622.608C425.111 623.879 426.036 624.967 427.194 625.757C428.352 626.548 429.702 627.013 431.101 627.103L437.786 883.654L438.507 883.635C437.177 883.767 435.902 884.238 434.806 885.003C433.709 885.768 432.826 886.8 432.242 888.003L337.847 852.306C338.238 850.89 338.223 849.392 337.805 847.984C337.386 846.575 336.58 845.313 335.479 844.341C334.377 843.368 333.025 842.725 331.575 842.484C330.126 842.243 328.638 842.415 327.281 842.979C325.924 843.543 324.754 844.477 323.902 845.674C323.05 846.872 322.552 848.284 322.464 849.751C322.377 851.218 322.703 852.68 323.406 853.97C324.109 855.26 325.16 856.327 326.44 857.049L237.168 1056.17C236.172 1055.87 235.125 1055.76 234.089 1055.87C233.052 1055.97 232.046 1056.28 231.131 1056.78C230.215 1057.27 229.407 1057.95 228.755 1058.76C228.103 1059.57 227.619 1060.51 227.332 1061.51L137.102 1042.2C137.189 1040.83 136.915 1039.46 136.306 1038.23C135.698 1037 134.778 1035.95 133.637 1035.19C132.496 1034.43 131.174 1033.98 129.805 1033.89C128.435 1033.79 127.065 1034.06 125.833 1034.67C124.6 1035.27 123.547 1036.19 122.78 1037.33C122.013 1038.46 121.558 1039.78 121.461 1041.15C121.365 1042.52 121.629 1043.89 122.228 1045.13C122.828 1046.36 123.741 1047.42 124.876 1048.19L11.1485 1284.65C9.90194 1284.18 8.55698 1284.04 7.2408 1284.24C5.92455 1284.44 4.68054 1284.97 3.62627 1285.78C2.57193 1286.59 1.74216 1287.66 1.21538 1288.88C0.688548 1290.1 0.482133 1291.44 0.615569 1292.76L0.615331 1292.76ZM136.878 1043.64L227.06 1062.93C226.863 1064.97 227.476 1067.01 228.766 1068.6L156.594 1141.43L131.891 1049.1C133.107 1048.67 134.198 1047.94 135.068 1046.99C135.938 1046.04 136.559 1044.89 136.878 1043.64ZM336.206 855.362L491.661 967.003C491.139 967.876 490.795 968.845 490.651 969.852C490.507 970.859 490.565 971.885 490.821 972.87L408.564 1001.81L334.487 856.843C335.129 856.435 335.708 855.936 336.206 855.362ZM439.426 618.512C439.375 618.01 439.276 617.513 439.13 617.029L452.942 611.443L546.597 671.279L439.014 621.883C439.397 620.803 439.538 619.652 439.426 618.512ZM448.828 394.154L576.094 410.97C576.039 412.083 576.232 413.195 576.659 414.224L483.725 462.406L445.8 398.746C447.33 397.63 448.405 395.999 448.828 394.154ZM475.03 -156.508C476.582 -156.354 478.145 -156.666 479.519 -157.405C480.893 -158.144 482.014 -159.277 482.74 -160.657L548.537 -129.466L462.345 -10.1945C461.648 -10.4802 460.913 -10.6632 460.163 -10.7376L469.07 -98.0652L475.03 -156.508ZM867.856 425.072C867.977 425.973 868.255 426.846 868.677 427.651L731.863 516.669L731.424 438.277L731.429 438.277C733.3 438.09 735.042 437.237 736.337 435.874C737.631 434.51 738.392 432.726 738.481 430.847L867.856 425.072ZM451.735 1177.15L532.721 1153.94L457.935 1181.28C457.324 1180.13 456.438 1179.15 455.356 1178.43C454.274 1177.71 453.03 1177.27 451.735 1177.15ZM330.719 1202.76C329.683 1202.86 328.678 1203.16 327.763 1203.66L294.38 1153.1L436.141 1074.47C436.455 1074.92 436.817 1075.34 437.22 1075.72L335.979 1204.14C334.448 1203.06 332.581 1202.57 330.719 1202.76ZM239.138 1174.55C237.424 1174.79 235.837 1175.59 234.626 1176.83C233.416 1178.07 232.649 1179.67 232.447 1181.39C232.244 1183.11 232.617 1184.85 233.507 1186.33C234.397 1187.82 235.753 1188.97 237.365 1189.6L203.956 1304.76L234.214 1071.96L239.138 1174.55ZM246.713 1177.88C246.025 1176.88 245.114 1176.05 244.05 1175.46C242.986 1174.87 241.8 1174.53 240.584 1174.48L235.639 1071.48C236.55 1071.38 237.437 1071.13 238.261 1070.73L292.31 1152.59L246.713 1177.88ZM239.503 1069.99C240.346 1069.37 241.055 1068.59 241.591 1067.69C242.127 1066.79 242.478 1065.8 242.624 1064.76L434.802 1070.53C434.808 1070.63 434.806 1070.72 434.815 1070.82C434.897 1071.64 435.109 1072.44 435.441 1073.2L293.58 1151.89L239.503 1069.99ZM447.109 891.148L525.132 874.143C525.462 875.181 526.006 876.14 526.727 876.956C527.448 877.773 528.332 878.431 529.322 878.887L510.058 933.333L446.112 895.281C446.821 894.023 447.166 892.592 447.109 891.148ZM772.401 27.6753C772.503 28.721 772.816 29.7352 773.319 30.6573C773.823 31.5794 774.507 32.3904 775.332 33.0418L733.24 97.5235L657.347 -73.6546C657.952 -73.9941 658.51 -74.4124 659.006 -74.8988L773.784 22.4087C772.706 23.9413 772.215 25.8105 772.401 27.6753ZM714.064 119.238C713.811 119.263 713.563 119.302 713.318 119.35L657.366 -70.0404L732.297 98.9679L718.497 120.109C717.138 119.388 715.595 119.085 714.064 119.238ZM654.293 -72.6931C654.546 -72.7183 654.794 -72.7576 655.038 -72.8053L711.93 119.763C710.4 120.375 709.102 121.453 708.22 122.845L576.847 55.6319L650.289 -73.3584C651.541 -72.7869 652.923 -72.5574 654.293 -72.6931ZM554.658 108.551L707.003 126.832C706.992 127.16 707.002 127.488 707.032 127.815C707.164 129.157 707.642 130.442 708.418 131.544L632.541 195.999L552.81 112.122C553.726 111.112 554.363 109.881 554.658 108.551ZM632.436 197.988L664.735 231.967C663.864 232.955 663.258 234.149 662.974 235.435C662.69 236.722 662.738 238.06 663.112 239.323L517.447 297.018C517.271 296.721 517.076 296.435 516.862 296.164L632.436 197.988ZM518.514 300.246C518.446 299.59 518.297 298.947 518.068 298.329L663.647 240.669C664.298 241.949 665.288 243.026 666.509 243.783L609.59 358.099L517.973 303.967C518.454 302.789 518.639 301.511 518.514 300.246L518.514 300.246ZM610.192 360.137L723.573 427.127C723.327 427.643 723.139 428.185 723.012 428.742L591.75 411.569C591.814 410.184 591.504 408.807 590.852 407.583C590.2 406.359 589.231 405.334 588.047 404.614L610.192 360.137ZM728.804 1008.15C727.102 1008.48 725.558 1009.37 724.415 1010.67L640.108 949.227L710.004 860.369C711.284 861.201 712.781 861.639 714.308 861.627L728.804 1008.15ZM523.75 1274.5L539.306 1206.48L606.257 1222.43C606.02 1224.02 606.289 1225.65 607.025 1227.08L527.519 1277.18C526.559 1275.93 525.246 1275 523.75 1274.5ZM606.59 1221.02L539.628 1205.07L550.984 1155.42C552.883 1155.68 554.811 1155.23 556.399 1154.16L608.514 1217.95C607.642 1218.81 606.983 1219.86 606.59 1221.02ZM458.803 1185.82C458.924 1184.74 458.819 1183.65 458.496 1182.62L544.939 1151.01C545.395 1151.97 546.04 1152.83 546.837 1153.53C547.633 1154.23 548.564 1154.77 549.572 1155.1L538.22 1204.74L458.803 1185.82ZM450.423 1069.27C450.355 1068.61 450.202 1067.95 449.968 1067.33L517.134 1035.15L549.06 1140.39C547.907 1140.86 546.883 1141.6 546.074 1142.55L449.401 1073.97C450.228 1072.55 450.585 1070.91 450.423 1069.27ZM506.037 972.799L598.644 991.711C598.649 991.914 598.653 992.118 598.674 992.323C598.742 992.988 598.895 993.642 599.129 994.268L518.03 1033.12L501.378 978.225C502.529 977.754 503.551 977.017 504.361 976.073C505.172 975.13 505.746 974.007 506.037 972.799L506.037 972.799ZM584.694 419.079C585.278 419.019 585.855 418.894 586.412 418.706L626.105 508.62L551.532 565.008C550.891 564.71 550.211 564.501 549.513 564.387L582.881 419.041C583.482 419.123 584.09 419.136 584.694 419.078L584.694 419.079ZM645.701 567.824L625.085 567.869L554.921 568.024C554.39 567.159 553.697 566.406 552.879 565.805L626.706 509.981L649.558 561.746C648.477 562.378 647.563 563.259 646.892 564.317C646.221 565.374 645.813 566.576 645.701 567.824L645.701 567.824ZM587.737 418.124C588.699 417.587 589.536 416.853 590.196 415.971C590.855 415.089 591.322 414.079 591.566 413.005L695.055 426.545L722.828 430.178C722.755 431.737 723.163 433.281 723.998 434.6L627.292 507.723L587.737 418.124ZM556.046 571.346C555.98 570.705 555.836 570.075 555.615 569.47L645.704 569.271L645.705 569.287C645.869 570.947 646.561 572.51 647.678 573.747L607.921 617.952L555.729 574.457C556.043 573.452 556.151 572.394 556.046 571.346ZM608.065 619.956L726.564 718.709C726.194 719.249 725.894 719.832 725.67 720.446L577.757 681.147L563.572 677.378C563.726 676.305 563.653 675.212 563.359 674.169C563.065 673.126 562.557 672.156 561.866 671.322L608.065 619.956ZM706.563 855.277C706.872 856.883 707.678 858.351 708.867 859.473L638.938 948.374L539.337 875.782C540.071 874.557 540.455 873.153 540.445 871.724L706.563 855.277ZM807.571 1113.2C807.283 1113.47 807.016 1113.77 806.773 1114.08L693.24 1044.14L724.449 1021.07C725.701 1022.48 727.419 1023.39 729.287 1023.63C731.155 1023.87 733.047 1023.43 734.617 1022.39L757.242 1050.55L807.571 1113.2ZM605.706 983.746C604.763 983.841 603.846 984.106 602.998 984.53L537.318 878.033C537.742 877.714 538.133 877.352 538.485 876.953L638.042 949.512L610.34 984.731C608.935 983.929 607.315 983.585 605.706 983.745L605.706 983.746ZM603.224 998.679L553.905 1140.05C553.037 1139.83 552.137 1139.76 551.246 1139.85C550.977 1139.87 550.709 1139.91 550.444 1139.97L518.455 1034.52L599.754 995.573C600.571 996.935 601.78 998.018 603.224 998.679L603.224 998.679ZM557.861 1142.43C557.139 1141.62 556.257 1140.97 555.272 1140.52L604.591 999.156C606.083 999.532 607.654 999.457 609.104 998.941C610.554 998.425 611.819 997.491 612.739 996.257L690.657 1044.25L557.861 1142.43ZM613.499 995.025C613.695 994.635 613.857 994.229 613.985 993.812L679.693 1006.68L722.49 1015.06C722.437 1015.58 722.437 1016.1 722.488 1016.62C722.604 1017.79 722.98 1018.91 723.588 1019.91L691.912 1043.33L613.499 995.025ZM722.772 1013.64L614.28 992.343C614.332 991.823 614.333 991.298 614.282 990.778C614.082 988.745 613.095 986.872 611.531 985.558L639.213 950.366L723.563 1011.84C723.225 1012.4 722.959 1013.01 722.772 1013.64ZM538.441 866.545C537.342 865.315 535.882 864.463 534.271 864.11L542.713 794.931L556.236 684.127C556.352 684.121 556.466 684.122 556.583 684.11C558.166 683.955 559.664 683.32 560.876 682.289L650.666 783.322L538.441 866.545ZM533.379 879.578C534.313 879.484 535.223 879.222 536.064 878.804L601.44 985.541C600.954 985.953 600.519 986.422 600.145 986.939L511.326 934.088L530.686 879.37C531.565 879.595 532.476 879.665 533.379 879.578ZM559.699 1146.07C559.518 1145.2 559.187 1144.36 558.721 1143.59L691.985 1045.07L805.992 1115.3C805.419 1116.4 805.118 1117.62 805.114 1118.87L559.699 1146.07ZM706.421 853.837L540.303 870.284C540.126 869.372 539.788 868.5 539.304 867.708L651.632 784.408L708.536 848.437C707.165 849.899 706.408 851.832 706.421 853.837ZM651.834 782.456L561.893 681.254C562.488 680.52 562.946 679.685 563.244 678.79L725.297 721.846C724.974 723.701 725.339 725.611 726.325 727.215L651.834 782.456ZM727.489 717.595L609.034 618.879L648.741 574.731C649.798 575.55 651.049 576.083 652.373 576.277C653.696 576.47 655.047 576.319 656.295 575.837L728.806 716.545C728.33 716.847 727.889 717.199 727.489 717.595ZM652.737 560.709C652.1 560.775 651.473 560.918 650.871 561.136L627.893 509.084L724.871 435.754C725.272 436.195 725.722 436.589 726.212 436.929L656.568 561.292C655.36 560.779 654.042 560.578 652.737 560.709ZM555.14 575.85L606.952 619.029L560.843 670.294C559.632 669.278 558.142 668.653 556.568 668.5L549.392 579.867C550.596 579.69 551.743 579.235 552.741 578.538C553.738 577.841 554.56 576.921 555.14 575.85ZM510.834 935.48L599.404 988.183C599.09 988.84 598.871 989.537 598.751 990.255L506.242 971.363C506.344 969.651 505.875 967.955 504.91 966.538C503.945 965.122 502.538 964.065 500.909 963.532L510.834 935.48ZM499.191 978.769C499.461 978.743 499.728 978.702 499.994 978.648L516.709 1033.75L449.342 1066.02C448.769 1065.06 447.998 1064.24 447.08 1063.6L495.221 978.12C496.465 978.68 497.834 978.904 499.192 978.769L499.191 978.769ZM337.086 1205.07L438.356 1076.62C439.946 1077.66 441.859 1078.08 443.737 1077.81C445.615 1077.54 447.331 1076.59 448.564 1075.15L545.236 1143.73C544.41 1145.15 544.052 1146.79 544.214 1148.42C544.237 1148.65 544.274 1148.88 544.316 1149.1L338.893 1207.99C338.515 1206.89 337.898 1205.9 337.086 1205.07ZM458.511 1187.24L537.897 1206.15L522.338 1274.18C520.595 1273.94 518.821 1274.3 517.312 1275.21L456.173 1190.85C457.273 1189.89 458.082 1188.64 458.511 1187.24ZM613.241 1215.73C611.949 1215.85 610.709 1216.3 609.633 1217.03L558.274 1154.16L627.56 1215.59L620.583 1219.26C619.801 1218.05 618.702 1217.09 617.407 1216.46C616.112 1215.84 614.671 1215.59 613.241 1215.73ZM558.335 1152.28C559.351 1150.9 559.885 1149.22 559.852 1147.51L804.88 1120.35L805.318 1120.64C805.414 1121.06 805.545 1121.48 805.709 1121.88L628.93 1214.87L558.335 1152.28ZM808.708 1112.3L735.744 1021.48C736.823 1020.44 737.58 1019.1 737.925 1017.64C738.269 1016.18 738.186 1014.65 737.686 1013.24C737.185 1011.82 736.289 1010.58 735.102 1009.66C733.916 1008.74 732.491 1008.18 730.995 1008.04L763.969 989.381L809.556 1111.83C809.264 1111.97 808.981 1112.13 808.709 1112.3L808.708 1112.3ZM730.131 1006.87L715.749 861.485C715.937 861.448 716.12 861.4 716.303 861.351L763.457 988.007L730.131 1006.87ZM713.487 845.983C712.086 846.121 710.749 846.637 709.618 847.475L652.799 783.542L727.188 728.378C728.25 729.564 729.649 730.398 731.197 730.771L714.652 845.963C714.264 845.941 713.875 845.947 713.488 845.983L713.487 845.983ZM657.595 575.199C659.297 574.163 660.54 572.517 661.069 570.596C661.599 568.675 661.377 566.625 660.447 564.863L730.431 519.328L731.528 715.453C731.036 715.549 730.555 715.692 730.091 715.879L657.595 575.199ZM659.655 563.652C659.142 563.003 658.531 562.439 657.843 561.98L727.475 437.636C728.267 437.989 729.113 438.207 729.977 438.281L730.421 517.608L659.655 563.652ZM724.309 425.881L610.839 358.836L667.802 244.429C668.948 244.877 670.183 245.048 671.407 244.927C671.693 244.898 671.977 244.853 672.258 244.793L727.651 423.228C726.313 423.786 725.157 424.705 724.309 425.881ZM669.862 229.317C668.372 229.464 666.956 230.037 665.783 230.968L633.541 197.05L709.355 132.648C709.917 133.196 710.558 133.657 711.256 134.015L672.874 229.607C671.898 229.315 670.875 229.217 669.862 229.317L669.862 229.317ZM722.64 126.27C722.537 125.224 722.224 124.21 721.72 123.288C721.217 122.365 720.532 121.554 719.708 120.903L732.996 100.545L747.314 132.838C745.86 133.656 744.703 134.915 744.01 136.433L722.442 128.924C722.659 128.057 722.726 127.159 722.64 126.27L722.64 126.27ZM750.368 131.878C749.779 131.938 749.199 132.064 748.639 132.255L733.94 99.1011L776.542 33.8362C776.87 34.007 777.208 34.1545 777.556 34.2775L752.386 131.947C751.719 131.837 751.041 131.813 750.368 131.877L750.368 131.878ZM659.94 -76.0046C661.036 -77.5625 661.525 -79.4668 661.315 -81.3597C661.105 -83.2527 660.211 -85.0039 658.802 -86.284L672.361 -104.223L774.673 21.2642L659.94 -76.0046ZM657.647 -87.1579C656.637 -87.7915 655.494 -88.1836 654.308 -88.3033C653.121 -88.423 651.923 -88.2671 650.807 -87.8479L602.131 -189.582C602.285 -189.652 602.438 -189.723 602.586 -189.802L671.419 -105.378L657.647 -87.1579ZM599.652 -188.909C600.023 -188.949 600.391 -189.015 600.753 -189.106L649.5 -87.2232C648.382 -86.5529 647.448 -85.6149 646.782 -84.4936L550.728 -130.029L594.316 -190.345C595.86 -189.231 597.758 -188.72 599.653 -188.909L599.652 -188.909ZM646.161 -83.1856C645.58 -81.6241 645.521 -79.9164 645.992 -78.3184L465.749 -7.50686C465.177 -8.30193 464.462 -8.98334 463.641 -9.51607L549.867 -128.835L646.161 -83.1856ZM467.19 -3.70591C467.101 -4.58471 466.864 -5.44198 466.489 -6.24156L646.523 -76.9708C647.107 -75.8131 647.968 -74.818 649.03 -74.0745L575.557 54.9715L466.882 -0.627517C467.189 -1.62286 467.293 -2.6695 467.19 -3.70591ZM576.13 56.8915L707.558 124.132C707.394 124.541 707.264 124.963 707.17 125.393L554.832 107.113C554.885 105.785 554.595 104.467 553.99 103.285C553.386 102.102 552.487 101.095 551.381 100.36L576.13 56.8915ZM547.773 114.671C549.218 114.527 550.594 113.983 551.746 113.1L631.437 196.937L515.861 295.115C514.953 294.322 513.875 293.75 512.71 293.442L546.118 114.657C546.668 114.72 547.223 114.724 547.773 114.671L547.773 114.671ZM517.303 305.253L608.943 359.398L586.752 403.966C585.699 403.555 584.57 403.378 583.442 403.446C582.314 403.514 581.214 403.826 580.218 404.361L515.811 306.968C516.389 306.472 516.891 305.894 517.303 305.253ZM577.327 415.508C578.3 417.021 579.762 418.155 581.47 418.72L548.052 564.286C547.859 564.291 547.666 564.295 547.47 564.314C546.568 564.406 545.689 564.653 544.871 565.046L484.467 463.652L577.327 415.508ZM543.627 565.787C542.165 566.856 541.117 568.396 540.66 570.149L347.22 538.587C347.313 537.396 347.124 536.2 346.668 535.096L483.179 464.32L543.627 565.787ZM346.988 540.016L540.427 571.578C540.353 572.521 540.457 573.47 540.734 574.375L453.093 609.821L346.371 541.637C346.636 541.122 346.843 540.578 346.988 540.016ZM541.279 575.716C541.917 576.949 542.87 577.99 544.041 578.733C545.212 579.477 546.56 579.896 547.946 579.949L555.116 668.497C555.091 668.5 555.066 668.499 555.039 668.501C553.981 668.605 552.955 668.925 552.024 669.44C551.094 669.954 550.278 670.654 549.627 671.495L454.59 610.777L541.279 575.716ZM554.783 684.075L532.833 863.94C531.718 863.9 530.607 864.1 529.576 864.527C528.545 864.953 527.617 865.596 526.856 866.412C526.094 867.228 525.517 868.198 525.163 869.256C524.809 870.314 524.686 871.436 524.803 872.546C524.808 872.607 524.822 872.666 524.83 872.727L446.924 889.707C446.511 887.877 445.453 886.258 443.945 885.144L553.24 683.708C553.74 683.883 554.258 684.006 554.783 684.075ZM445.287 896.476L509.565 934.725L499.49 963.202C497.631 962.936 495.739 963.355 494.167 964.381L444.271 897.489C444.64 897.183 444.98 896.844 445.287 896.476ZM491.299 974.237C491.886 975.514 492.804 976.61 493.959 977.41L445.818 1062.89C444.862 1062.46 443.827 1062.22 442.778 1062.2C441.729 1062.18 440.686 1062.37 439.713 1062.76L409.229 1003.11L491.299 974.237ZM438.424 1063.43C437.446 1064.05 436.617 1064.88 435.998 1065.85C435.378 1066.83 434.983 1067.94 434.84 1069.09L242.689 1063.31C242.682 1063.18 242.682 1063.04 242.669 1062.9C242.628 1062.52 242.56 1062.14 242.465 1061.77L407.851 1003.59L438.424 1063.43ZM229.778 1069.63C230.668 1070.39 231.717 1070.94 232.848 1071.24L202.31 1306.2C201.956 1306.18 201.602 1306.19 201.25 1306.23C201.065 1306.24 200.885 1306.28 200.705 1306.31L157.027 1143.05L229.778 1069.63ZM199.307 1306.68C198.061 1307.14 196.953 1307.91 196.085 1308.91C195.217 1309.92 194.618 1311.13 194.345 1312.43L16.2543 1292.16C16.2624 1291.84 16.252 1291.53 16.223 1291.22C16.0695 1289.65 15.444 1288.16 14.4289 1286.96L155.848 1144.24L199.307 1306.68ZM248.039 1181.53C247.957 1180.71 247.745 1179.91 247.412 1179.15L293.11 1153.8L326.56 1204.47C325.494 1205.33 324.674 1206.46 324.18 1207.74L247.904 1183.94C248.073 1183.15 248.118 1182.34 248.039 1181.53ZM446.275 1178.71C445.226 1179.51 444.394 1180.56 443.857 1181.76C443.319 1182.96 443.093 1184.27 443.199 1185.59L353.901 1205.19L446.275 1178.71ZM621.817 1222.76C621.741 1222 621.554 1221.25 621.26 1220.54L628.718 1216.62L723.521 1300.66L620.787 1227.47C621.619 1226.05 621.98 1224.4 621.817 1222.76ZM736.504 1301.65C735.182 1301.25 733.775 1301.19 732.427 1301.51C731.078 1301.82 729.837 1302.48 728.829 1303.43L630.088 1215.89L806.386 1123.16C807.116 1124.28 808.119 1125.2 809.301 1125.83L736.504 1301.65ZM911.971 1184.73C910.721 1185.24 909.623 1186.05 908.781 1187.1L816.155 1126.05C817.64 1125.38 818.882 1124.28 819.709 1122.88C820.537 1121.48 820.908 1119.85 820.772 1118.23C820.635 1116.61 819.998 1115.08 818.949 1113.83C817.9 1112.59 816.49 1111.71 814.915 1111.3L841.267 948.155L911.971 1184.73ZM840.101 946.294L813.486 1111.07C812.62 1111 811.749 1111.09 810.913 1111.33L765.245 988.659L840.101 946.294ZM839.714 944.849L764.733 987.285L717.66 860.846C718.619 860.384 719.474 859.732 720.172 858.928L839.714 944.849ZM732.958 712.269L731.873 518.39L869.469 428.863C870.041 429.584 870.736 430.199 871.521 430.68L732.958 712.269ZM869.363 419.281C868.412 420.537 867.864 422.052 867.791 423.626L738.416 429.401C738.273 428.333 737.91 427.307 737.351 426.386C736.792 425.465 736.048 424.67 735.167 424.05C734.286 423.43 733.286 423 732.231 422.785C731.175 422.57 730.086 422.575 729.033 422.801L673.641 244.365C674.476 244.017 675.244 243.525 675.911 242.913L869.363 419.281ZM675.049 230.643C674.781 230.461 674.502 230.297 674.214 230.15L712.598 134.558C714.411 135.1 716.359 134.966 718.082 134.182C719.804 133.398 721.184 132.015 721.966 130.292L743.535 137.801C743.205 139.115 743.223 140.492 743.587 141.796C743.95 143.101 744.647 144.288 745.608 145.242L675.049 230.643ZM776.834 19.8286C776.486 19.9916 776.151 20.18 775.831 20.3925L673.259 -105.412L708.09 -151.496C708.994 -150.926 710.006 -150.55 711.062 -150.393C712.119 -150.236 713.197 -150.301 714.227 -150.584L776.834 19.8286ZM704.591 -159.959C704.264 -158.6 704.31 -157.178 704.723 -155.843C705.135 -154.507 705.9 -153.308 706.936 -152.37L672.317 -106.568L603.797 -190.609C604.667 -191.312 605.377 -192.193 605.88 -193.192L704.591 -159.959ZM591.457 -194.203C591.824 -193.116 592.425 -192.124 593.219 -191.297L549.399 -130.66L483.299 -161.996C483.746 -163.428 483.766 -164.96 483.356 -166.403L591.457 -194.203ZM464.916 2.6241C465.48 2.06171 465.955 1.4175 466.325 0.713018L574.84 56.2309L550.11 99.6667C548.898 99.1427 547.574 98.9331 546.26 99.0577C544.945 99.1822 543.684 99.6367 542.592 100.379L464.916 2.6241ZM506.562 307.665C507.766 308.422 509.155 308.835 510.577 308.86C511.999 308.884 513.401 308.519 514.63 307.804L579.013 405.163C577.637 406.271 576.674 407.81 576.28 409.533L449.014 392.718C449.03 392.359 449.022 391.999 448.99 391.641C448.801 389.723 447.908 387.943 446.484 386.643L506.562 307.665ZM437.308 399.224C438.404 399.854 439.637 400.207 440.9 400.252C442.163 400.298 443.418 400.035 444.556 399.487L482.437 463.074L345.999 533.812C345.578 533.156 345.063 532.567 344.469 532.064L437.308 399.224ZM346.94 543.719L451.446 610.487L438.586 615.688C438.03 614.608 437.231 613.672 436.252 612.954C435.272 612.236 434.139 611.757 432.942 611.553C431.745 611.348 430.516 611.426 429.354 611.779C428.192 612.132 427.128 612.75 426.247 613.585L346.94 543.719ZM432.549 627.067C433.759 626.923 434.92 626.499 435.938 625.827C436.955 625.156 437.802 624.255 438.41 623.199L548.419 673.708C547.806 675.437 547.821 677.326 548.461 679.044C549.101 680.763 550.325 682.201 551.919 683.107L442.706 884.392C441.625 883.862 440.436 883.591 439.233 883.599L432.549 627.067ZM431.728 889.356C431.317 890.843 431.354 892.419 431.835 893.885C432.315 895.351 433.218 896.643 434.429 897.598C435.64 898.554 437.107 899.13 438.644 899.256C440.182 899.381 441.722 899.05 443.073 898.304L493.03 965.278C492.846 965.452 492.671 965.635 492.505 965.826L337.051 854.186C337.151 854.015 337.245 853.839 337.333 853.66L431.728 889.356ZM327.761 857.641C329.531 858.253 331.462 858.204 333.199 857.503L407.186 1002.29L241.989 1060.41C241.266 1058.83 240.041 1057.54 238.506 1056.73L327.761 857.641ZM126.146 1048.89C127.374 1049.43 128.721 1049.65 130.056 1049.51C130.202 1049.5 130.343 1049.47 130.487 1049.45L155.414 1142.62L13.4016 1285.94C13.102 1285.69 12.785 1285.47 12.4532 1285.28L126.146 1048.89Z" fill="#7838BC"/>
</svg>
