<svg width="16" height="16" viewBox="0 0 16 16" fill="none" xmlns="http://www.w3.org/2000/svg">
<g clip-path="url(../../#clip0)">
<path d="M12.9875 0.671875V2.73953H12.05V0.671875H9.975V2.73953H9.0375V0.671875H6.9625V2.73953H6.025V0.671875H3.94997V2.73953H3.01247V0.671875H0V3.9555H16V0.671875H12.9875Z" fill="white"/>
<path d="M3.95019 0H3.0127V0.671656H3.95019V0Z" fill="white"/>
<path d="M6.9624 0H6.0249V0.671656H6.9624V0Z" fill="white"/>
<path d="M9.9751 0H9.0376V0.671656H9.9751V0Z" fill="white"/>
<path d="M12.9873 0H12.0498V0.671656H12.9873V0Z" fill="white"/>
<path d="M0 4.89307V16.0003H16V4.89307H0ZM4.91416 14.1253H2.34375V11.5549H4.91416V14.1253ZM4.91416 9.33847H2.34375V6.76807H4.91416V9.33847ZM9.28519 14.1253H6.71478V11.5549H9.28519V14.1253ZM9.28519 9.33847H6.71478V6.76807H9.28519V9.33847ZM13.6562 14.1253H11.0858V11.5549H13.6562V14.1253ZM13.6562 9.33847H11.0858V6.76807H13.6562V9.33847Z" fill="white"/>
</g>
<defs>
<clipPath id="clip0">
<rect width="16" height="16" fill="white"/>
</clipPath>
</defs>
</svg>
