<svg width="60" height="58" viewBox="0 0 60 58" fill="none" xmlns="http://www.w3.org/2000/svg">
<path d="M0 0L60 12.3766L53 58H3.23308L0 0Z" fill="url(#paint0_linear)"/>
<g clip-path="url(#clip0)">
<path d="M31.8323 31.9844L39.6199 39.7723C40.1267 40.2789 40.1267 41.0979 39.6199 41.6045C39.1134 42.111 38.2943 42.111 37.7877 41.6045L29.9999 33.8166L22.2123 41.6045C21.7055 42.111 20.8867 42.111 20.3801 41.6045C19.8733 41.0979 19.8733 40.2789 20.3801 39.7723L28.1677 31.9844L20.3801 24.1966C19.8733 23.69 19.8733 22.871 20.3801 22.3644C20.6326 22.1117 20.9645 21.9848 21.2962 21.9848C21.6279 21.9848 21.9596 22.1117 22.2123 22.3644L29.9999 30.1523L37.7877 22.3644C38.0404 22.1117 38.3721 21.9848 38.7038 21.9848C39.0355 21.9848 39.3672 22.1117 39.6199 22.3644C40.1267 22.871 40.1267 23.69 39.6199 24.1966L31.8323 31.9844Z" fill="white"/>
</g>
<defs>
<linearGradient id="paint0_linear" x1="3.33083" y1="-7.52302" x2="56.48" y2="1.14383" gradientUnits="userSpaceOnUse">
<stop stop-color="#461DFF"/>
<stop offset="1" stop-color="#663B94"/>
</linearGradient>
<clipPath id="clip0">
<rect width="20" height="20" fill="white" transform="matrix(1 0 0 -1 20 42)"/>
</clipPath>
</defs>
</svg>
