<svg width="18" height="19" viewBox="0 0 18 19" fill="none" xmlns="http://www.w3.org/2000/svg">
<path d="M17.8999 13.1616L16.3492 13.1616C15.5763 14.6365 14.3575 15.8269 12.8684 16.5617C11.3793 17.2965 9.69663 17.5377 8.06243 17.2506C6.42823 16.9635 4.92681 16.1629 3.77422 14.9641C2.62163 13.7652 1.87729 12.2298 1.64831 10.5789C1.41933 8.92804 1.71753 7.24672 2.49997 5.77691C3.28242 4.3071 4.50879 3.12458 6.0026 2.39952C7.49642 1.67445 9.18065 1.44423 10.813 1.74196C12.4453 2.0397 13.9415 2.85005 15.0863 4.05641L13.6331 5.57395L17.4092 5.57395L17.4092 1.77997L16.0675 3.07702C14.6955 1.65139 12.9034 0.707098 10.956 0.383707C9.00871 0.0603148 7.00948 0.374985 5.25385 1.28121C3.49823 2.18743 2.07937 3.63712 1.20698 5.416C0.334593 7.19489 0.0549713 9.20858 0.409444 11.1594C0.763917 13.1103 1.73368 14.8948 3.17539 16.2493C4.6171 17.6037 6.45426 18.4561 8.41533 18.6806C10.3764 18.9051 12.3573 18.4897 14.0653 17.4958C15.7733 16.502 17.1178 14.9823 17.8999 13.1616Z" fill="#6EB52C"/>
</svg>
