<svg width="20" height="20" viewBox="0 0 20 20" fill="none" xmlns="http://www.w3.org/2000/svg">
<path d="M9.61469 13.5524C9.84357 13.7814 10.2145 13.7812 10.4432 13.5524L12.9536 11.042C13.1825 10.8133 13.1825 10.4422 12.9536 10.2134C12.7249 9.98456 12.354 9.98456 12.1251 10.2134L10.6149 11.7236V7.48975C10.6149 7.16611 10.3525 6.90381 10.029 6.90381C9.70533 6.90381 9.44303 7.16611 9.44303 7.48975V11.7236L7.93287 10.2134C7.70399 9.98456 7.33305 9.98456 7.10416 10.2134C6.87543 10.4422 6.87543 10.8133 7.10416 11.042L9.61469 13.5524Z" fill="#22A8FF"/>
<path d="M12.5395 15.0625H7.51855C7.19507 15.0625 6.93262 15.3248 6.93262 15.6484C6.93262 15.9719 7.19507 16.2344 7.51855 16.2344H12.5395C12.8629 16.2344 13.1254 15.9719 13.1254 15.6484C13.1254 15.3248 12.8631 15.0625 12.5395 15.0625Z" fill="#22A8FF"/>
<path d="M15.677 0H6.89056C6.73523 0 6.58615 0.0617981 6.47629 0.171661L2.71072 3.93723C2.60086 4.04709 2.53906 4.19617 2.53906 4.3515V18.1589C2.53906 19.174 3.36502 20 4.38019 20H15.677C16.6893 20 17.5182 19.1815 17.5182 18.1589V1.84113C17.5182 0.828857 16.6998 0 15.677 0ZM6.93222 1.37283V3.72391C6.93222 4.09302 6.63208 4.39316 6.26297 4.39316H3.9119L6.93222 1.37283ZM16.3463 18.1589C16.3463 18.5234 16.0516 18.8281 15.677 18.8281H4.38019C4.01123 18.8281 3.71094 18.5278 3.71094 18.1589V5.56519H6.26297C7.27814 5.56519 8.1041 4.73923 8.1041 3.72406V1.17188H15.677C16.0417 1.17188 16.3463 1.46667 16.3463 1.84113V18.1589Z" fill="#22A8FF"/>
</svg>
