<svg width="47" height="47" viewBox="0 0 47 47" fill="none" xmlns="http://www.w3.org/2000/svg">
<g clip-path="url(../../#clip0)">
<path d="M43.8305 0.5H3.02943C1.63228 0.5007 0.49965 1.63403 0.5 3.03153V43.8326C0.5007 45.2298 1.63403 46.3624 3.03153 46.3621H43.8305C45.2284 46.3624 46.3617 45.2294 46.3621 43.8316C46.3621 43.8312 46.3621 43.8309 46.3621 43.8305V3.02943C46.3614 1.63228 45.228 0.49965 43.8305 0.5Z" fill="#4267B2"/>
<path d="M32.1646 46.3619V28.6261H38.1437L39.0395 21.6841H32.1646V17.2628C32.1646 15.2575 32.7213 13.8911 35.5968 13.8911H39.241V7.69895C38.607 7.61462 36.4317 7.42603 33.9005 7.42603C28.6156 7.42603 24.9987 10.6507 24.9987 16.5752V21.6841H19.042V28.6261H24.9987V46.3619H32.1646Z" fill="white"/>
</g>
<defs>
<clipPath id="clip0">
<rect width="45.8621" height="45.8621" fill="white" transform="translate(0.5 0.5)"/>
</clipPath>
</defs>
</svg>
