<svg width="47" height="47" viewBox="0 0 47 47" fill="none" xmlns="http://www.w3.org/2000/svg">
<g clip-path="url(../../#clip0)">
<path d="M3.2287 3.62038C-0.37529 7.36387 0.362325 11.3405 0.362325 23.4213C0.362325 33.4537 -1.38808 43.5108 7.77287 45.8784C10.6335 46.6142 35.9799 46.6142 38.8368 45.8746C42.651 44.8905 45.7543 41.7967 46.1785 36.4022C46.2378 35.6493 46.2378 11.2067 46.1766 10.4385C45.7256 4.69241 42.1885 1.38078 37.5278 0.710049C36.4596 0.555265 36.2456 0.509403 30.765 0.499848C11.3253 0.509403 7.06392 -0.356244 3.2287 3.62038Z" fill="url(#paint0_linear)"/>
<path d="M23.2894 6.49828C16.3509 6.49828 9.76203 5.88105 7.24535 12.34C6.20581 15.0076 6.35677 18.4721 6.35677 23.4328C6.35677 27.7859 6.21727 31.8772 7.24535 34.5238C9.75629 40.9865 16.3987 40.3674 23.2856 40.3674C29.9299 40.3674 36.7805 41.0592 39.3278 34.5238C40.3692 31.8294 40.2164 28.4165 40.2164 23.4328C40.2164 16.8172 40.5813 12.5463 37.3729 9.33981C34.1243 6.09125 29.7311 6.49828 23.2818 6.49828H23.2894ZM21.7722 9.55001C36.2455 9.52708 38.0876 7.91809 37.071 30.2701C36.7098 38.1756 30.6904 37.308 23.2913 37.308C9.80024 37.308 9.41233 36.922 9.41233 23.4252C9.41233 9.77168 10.4824 9.55766 21.7722 9.54619V9.55001ZM32.3281 12.361C31.2064 12.361 30.2968 13.2706 30.2968 14.3923C30.2968 15.514 31.2064 16.4236 32.3281 16.4236C33.4498 16.4236 34.3594 15.514 34.3594 14.3923C34.3594 13.2706 33.4498 12.361 32.3281 12.361ZM23.2894 14.7362C18.4873 14.7362 14.5947 18.6307 14.5947 23.4328C14.5947 28.235 18.4873 32.1275 23.2894 32.1275C28.0916 32.1275 31.9822 28.235 31.9822 23.4328C31.9822 18.6307 28.0916 14.7362 23.2894 14.7362ZM23.2894 17.788C30.7516 17.788 30.7611 29.0777 23.2894 29.0777C15.8292 29.0777 15.8177 17.788 23.2894 17.788Z" fill="white"/>
</g>
<defs>
<linearGradient id="paint0_linear" x1="3.31664" y1="43.4326" x2="45.9406" y2="6.54213" gradientUnits="userSpaceOnUse">
<stop stop-color="#FFDD55"/>
<stop offset="0.5" stop-color="#FF543E"/>
<stop offset="1" stop-color="#C837AB"/>
</linearGradient>
<clipPath id="clip0">
<rect width="45.8621" height="45.8621" fill="white" transform="translate(0.362305 0.5)"/>
</clipPath>
</defs>
</svg>
