<svg width="58" height="60" viewBox="0 0 58 60" fill="none" xmlns="http://www.w3.org/2000/svg">
<path d="M58 7.62939e-06L45.6234 60L-1.15835e-05 53L-7.06613e-07 3.23308L58 7.62939e-06Z" fill="url(#paint0_linear)"/>
<g clip-path="url(#clip0)">
<path d="M22.5029 21.6581C22.8271 21.3338 23.3376 21.3338 23.6619 21.6581C23.9752 21.9714 23.9752 22.4928 23.6619 22.8054L17.7852 28.6821L37.1775 28.6821C37.6296 28.6821 38.0005 29.0414 38.0005 29.4934C38.0005 29.9455 37.6296 30.3165 37.1775 30.3165L17.7852 30.3165L23.6619 36.1822C23.9752 36.5065 23.9752 37.0286 23.6619 37.3412C23.3376 37.6655 22.8271 37.6655 22.5029 37.3412L15.235 30.0733C14.9217 29.76 14.9217 29.2386 15.235 28.926L22.5029 21.6581Z" fill="white"/>
</g>
<defs>
<linearGradient id="paint0_linear" x1="42" y1="-19.5" x2="79.8751" y2="31.9529" gradientUnits="userSpaceOnUse">
<stop stop-color="#22A8FF"/>
<stop offset="1" stop-color="#461DFF"/>
</linearGradient>
<clipPath id="clip0">
<rect width="23" height="23" fill="white" transform="translate(15 18)"/>
</clipPath>
</defs>
</svg>
