<svg width="28" height="28" viewBox="0 0 28 28" fill="none" xmlns="http://www.w3.org/2000/svg">
<path d="M14 28.0001C21.732 28.0001 28 21.7321 28 14.0001C28 6.26814 21.732 0.00012207 14 0.00012207C6.26801 0.00012207 0 6.26814 0 14.0001C0 21.7321 6.26801 28.0001 14 28.0001Z" fill="#2DBCEC"/>
<g style="mix-blend-mode:multiply" opacity="0.15">
<path d="M27.8716 15.8783L22.4162 10.4255C18.1322 13.1153 14.587 16.8313 12.1015 21.2369C11.9368 21.5663 10.0406 21.5293 9.99121 21.6023L16.2243 27.8225C19.1899 27.344 21.9232 25.9246 24.0205 23.7739C26.1177 21.6232 27.4679 18.8551 27.8716 15.8783Z" fill="black"/>
</g>
<path d="M5.44873 14.3472C5.44873 14.3472 7.59436 16.4928 8.66718 18.4491C9.74 20.4054 9.99243 21.6045 9.99243 21.6045L12.1381 21.5414C13.6061 18.9815 15.4577 16.6617 17.6284 14.6627C21.1623 11.4443 22.5507 10.5608 22.5507 10.5608L18.6381 6.39572C18.6381 6.39572 14.9148 11.0025 13.5264 13.5268C12.1381 16.0511 10.7497 19.0802 10.7497 19.0802C10.1032 18.1265 9.33997 17.2573 8.47787 16.4928C7.52259 15.7037 6.51009 14.9865 5.44873 14.3472Z" fill="white"/>
</svg>
