<svg width="16" height="16" viewBox="0 0 16 16" fill="none" xmlns="http://www.w3.org/2000/svg">
<path d="M16 9.14524V0.538086H0V9.14524H16ZM8.42113 7.64821C8.18891 7.41602 7.81109 7.41602 7.57891 7.64821L6.916 6.9853C7.51372 6.38758 8.48631 6.38758 9.08403 6.9853L8.42113 7.64821ZM9.95088 6.11849C8.87516 5.0428 7.12484 5.0428 6.04916 6.11849L5.38625 5.45558C6.82747 4.01437 9.17256 4.01437 10.6138 5.45558L9.95088 6.11849ZM8 2.22112C9.56213 2.22112 11.0307 2.82946 12.1353 3.93402L11.4724 4.59693C10.5449 3.6694 9.31172 3.15862 8 3.15862C6.68828 3.15862 5.45512 3.66943 4.52759 4.59693L3.86469 3.93402C4.96928 2.82946 6.43787 2.22112 8 2.22112Z" fill="white"/>
<path d="M16 12.2343V10.0825H0V12.2343H5.91741V13.4307C5.91741 14.0338 5.42675 14.5245 4.82366 14.5245H3.69644V15.462H12.3036V14.5245H11.1764C10.5733 14.5245 10.0826 14.0338 10.0826 13.4307V12.2343H16Z" fill="white"/>
</svg>
