<svg width="19" height="19" viewBox="0 0 19 19" fill="none" xmlns="http://www.w3.org/2000/svg">
<path d="M18 17.2037L12.9123 12.1161C13.9097 10.9383 14.5145 9.41798 14.5145 7.75726C14.5145 4.03108 11.4834 1 7.75726 1C4.03111 1 1 4.03108 1 7.75726C1 11.4834 4.03108 14.5145 7.75726 14.5145C9.41798 14.5145 10.9383 13.9097 12.1161 12.9123L17.2037 18L18 17.2037ZM7.75726 13.3883C4.65248 13.3883 2.12622 10.862 2.12622 7.75726C2.12622 4.65248 4.65248 2.12622 7.75726 2.12622C10.862 2.12622 13.3883 4.65248 13.3883 7.75726C13.3883 10.862 10.862 13.3883 7.75726 13.3883Z" fill="#6EB52C" stroke="#6EB52C"/>
</svg>
