<svg width="58" height="60" viewBox="0 0 58 60" fill="none" xmlns="http://www.w3.org/2000/svg">
<path d="M58 0L45.6234 60L-1.15835e-05 53L-7.06613e-07 3.23307L58 0Z" fill="url(#paint0_linear)"/>
<g clip-path="url(../../#clip0)">
<path d="M22.5019 21.6581C22.8262 21.3339 23.3366 21.3339 23.6609 21.6581C23.9742 21.9714 23.9742 22.4928 23.6609 22.8054L17.7842 28.6821L37.1765 28.6821C37.6286 28.6821 37.9996 29.0414 37.9996 29.4935C37.9996 29.9455 37.6286 30.3165 37.1765 30.3165L17.7842 30.3165L23.6609 36.1823C23.9742 36.5065 23.9742 37.0287 23.6609 37.3413C23.3366 37.6655 22.8262 37.6655 22.5019 37.3413L15.234 30.0733C14.9207 29.76 14.9207 29.2386 15.234 28.926L22.5019 21.6581Z" fill="white"/>
</g>
<defs>
<linearGradient id="paint0_linear" x1="42" y1="-19.5" x2="79.8751" y2="31.9529" gradientUnits="userSpaceOnUse">
<stop stop-color="#22A8FF"/>
<stop offset="1" stop-color="#461DFF"/>
</linearGradient>
<clipPath id="clip0">
<rect width="23" height="23" fill="white" transform="translate(15 18)"/>
</clipPath>
</defs>
</svg>
