<svg width="58" height="60" viewBox="0 0 58 60" fill="none" xmlns="http://www.w3.org/2000/svg">
<path d="M0 60L12.3766 6.51968e-06L58 7.00001L58 56.7669L0 60Z" fill="url(#paint0_linear)"/>
<g clip-path="url(../../#clip0)">
<path d="M35.4981 21.6581C35.1738 21.3339 34.6634 21.3339 34.3391 21.6581C34.0258 21.9714 34.0258 22.4928 34.3391 22.8054L40.2158 28.6821H20.8235C20.3714 28.6821 20.0004 29.0414 20.0004 29.4935C20.0004 29.9455 20.3714 30.3165 20.8235 30.3165H40.2158L34.3391 36.1823C34.0258 36.5065 34.0258 37.0287 34.3391 37.3413C34.6634 37.6655 35.1738 37.6655 35.4981 37.3413L42.766 30.0733C43.0793 29.76 43.0793 29.2386 42.766 28.926L35.4981 21.6581Z" fill="white"/>
</g>
<defs>
<linearGradient id="paint0_linear" x1="39" y1="4.58301e-06" x2="63.8605" y2="53.1038" gradientUnits="userSpaceOnUse">
<stop stop-color="#22A8FF"/>
<stop offset="1" stop-color="#461DFF"/>
</linearGradient>
<clipPath id="clip0">
<rect width="23" height="23" fill="white" transform="matrix(-1 0 0 1 43 18)"/>
</clipPath>
</defs>
</svg>
