<svg width="47" height="47" viewBox="0 0 47 47" fill="none" xmlns="http://www.w3.org/2000/svg">
<g clip-path="url(../../#clip0)">
<rect x="0.224121" y="0.5" width="60" height="60" rx="2" fill="#61A8DE"/>
<path d="M35.228 9.46599L4.55949 21.4172C3.56613 21.8043 3.62631 23.2298 4.64885 23.5317L12.4421 25.833L15.3505 35.0618C15.6543 36.0257 16.8759 36.318 17.5831 35.5959L21.6123 31.4818L29.5182 37.2849C30.4857 37.9951 31.8635 37.4674 32.1092 36.2927L37.3453 11.259C37.6017 10.0328 36.3953 9.01113 35.228 9.46599ZM31.383 15.0216L17.1376 27.6188C16.9956 27.7444 16.9053 27.9182 16.8841 28.1065L16.3357 32.9821C16.3178 33.1411 16.0953 33.1621 16.0478 33.0093L13.7913 25.7382C13.6879 25.4053 13.8227 25.0447 14.1188 24.861L30.9411 14.4277C31.328 14.1875 31.7241 14.7201 31.383 15.0216Z" fill="white"/>
</g>
<defs>
<clipPath id="clip0">
<rect width="45.8621" height="45.8621" fill="white" transform="translate(0.224121 0.5)"/>
</clipPath>
</defs>
</svg>
